<?xml version="1.0" encoding="UTF-8"?>
<svg xmlns="http://www.w3.org/2000/svg" xmlns:xlink="http://www.w3.org/1999/xlink" width="2095" height="2095" viewBox="0 0 2095 2095">
<path fill-rule="nonzero" fill="rgb(99.609375%, 99.609375%, 99.609375%)" fill-opacity="1" d="M 1.453125 0 C 1.066406 0 0.699219 0.148438 0.425781 0.429688 C 0.152344 0.699219 0 1.070312 0 1.449219 L 0 2092.835938 C 0 2093.640625 0.652344 2094.289062 1.453125 2094.289062 L 2092.839844 2094.289062 C 2093.21875 2094.289062 2093.589844 2094.136719 2093.871094 2093.863281 C 2094.140625 2093.59375 2094.289062 2093.222656 2094.289062 2092.839844 L 2094.289062 1.449219 C 2094.289062 0.648438 2093.640625 0 2092.839844 0 Z M 1.453125 0 "/>
<path fill-rule="nonzero" fill="rgb(0%, 0%, 0%)" fill-opacity="1" d="M 1188.5 178.699219 L 1071.671875 373.609375 L 1081.378906 277.089844 L 935.191406 547.058594 L 932.574219 468.800781 C 901.585938 553.769531 871.84375 621.171875 843.347656 671.011719 C 830.425781 693.011719 816.664062 713.539062 802.0625 732.621094 L 716.113281 841.558594 C 708.371094 851.378906 700.777344 867.53125 693.339844 890.011719 C 686.074219 905.269531 682.015625 968.371094 681.167969 1079.320312 C 681.171875 1079.75 681.179688 1080.171875 681.183594 1080.601562 C 642.246094 1074.128906 614.207031 1070.570312 597.070312 1069.910156 C 588.574219 1069.238281 580.464844 1068.898438 572.746094 1068.898438 C 539.941406 1068.898438 514.125 1075.011719 495.296875 1087.21875 C 473.46875 1101.054688 453.304688 1126.15625 434.808594 1162.527344 C 408.472656 1165.65625 388.757812 1169.148438 375.65625 1173 C 359.652344 1177.234375 345.652344 1184.238281 333.65625 1194.015625 C 316.136719 1209.339844 299.363281 1234.488281 283.339844 1269.464844 C 311.265625 1248.546875 336.597656 1236.386719 359.332031 1232.984375 C 369.777344 1230.683594 384.929688 1229.53125 404.792969 1229.53125 C 425.195312 1229.53125 450.570312 1230.746094 480.914062 1233.171875 C 556.839844 1260.386719 616.152344 1281.273438 658.863281 1295.835938 L 658.773438 1295.839844 C 684.152344 1324.976562 726.597656 1355.257812 786.117188 1386.683594 L 899.089844 1435.511719 L 899 1435.515625 C 903.667969 1438.96875 907.308594 1441.210938 909.925781 1442.246094 L 909.832031 1442.25 C 932.503906 1480.355469 951.867188 1504.117188 967.925781 1513.539062 C 970.796875 1515.726562 975.328125 1518.425781 981.519531 1521.632812 L 981.425781 1521.636719 C 978.351562 1540.253906 976.519531 1555.09375 975.917969 1566.15625 C 975 1579.722656 976.417969 1595.289062 980.171875 1612.867188 L 982.273438 1613.625 L 982.179688 1613.628906 C 976.386719 1635.632812 971.085938 1650.53125 966.277344 1658.316406 C 961.925781 1665.539062 959.132812 1669.691406 957.890625 1670.769531 L 940.96875 1689.300781 C 938.6875 1691.882812 936.5 1694.648438 934.40625 1697.597656 C 929.441406 1705.449219 926.691406 1710.535156 926.160156 1712.867188 C 921.546875 1724.992188 919.398438 1739.8125 919.714844 1757.316406 C 919.8125 1762.980469 920.183594 1768.683594 920.816406 1774.417969 L 921.96875 1782.957031 C 922.871094 1788.632812 924.03125 1794.144531 925.457031 1799.5 C 928.320312 1810.28125 932.1875 1819.75 937.058594 1827.917969 C 943.695312 1841.027344 959.320312 1856.507812 983.9375 1874.351562 C 970.882812 1852.261719 961.910156 1835.125 957.015625 1822.945312 C 953.902344 1814.453125 952.320312 1809.515625 952.269531 1808.132812 C 950.957031 1801.988281 950.539062 1796.335938 951.015625 1791.171875 C 950.933594 1785.707031 953.675781 1776.367188 959.242188 1763.164062 C 963.089844 1778.050781 966.957031 1789.683594 970.84375 1798.0625 C 974.378906 1806.277344 981.648438 1819.535156 992.648438 1837.835938 C 985.191406 1808.570312 981.160156 1785.355469 980.5625 1768.191406 C 979.402344 1751.480469 980.792969 1723.878906 984.730469 1685.394531 L 1010.429688 1623.765625 L 1016.519531 1625.964844 C 1018.738281 1621.996094 1020.789062 1618.183594 1022.671875 1614.527344 L 1022.761719 1614.53125 C 1023.441406 1618.097656 1024.191406 1621.820312 1024.988281 1625.691406 L 1032.339844 1625.867188 L 1032.25 1625.871094 C 1030.730469 1637.40625 1029.019531 1645.726562 1027.128906 1650.835938 C 1024.789062 1657.347656 1023.238281 1661.113281 1022.480469 1662.132812 C 1020.671875 1665.601562 1017.28125 1671.210938 1012.308594 1678.957031 L 1008.339844 1686.082031 C 1007.078125 1688.558594 1005.941406 1691.203125 1004.929688 1694.015625 L 1003.539062 1698.414062 C 1001.820312 1704.558594 1000.941406 1711.578125 1000.878906 1719.476562 C 1000.859375 1723.386719 1001.039062 1727.386719 1001.441406 1731.476562 L 1002.210938 1737.613281 C 1004.648438 1754.910156 1010.660156 1769.527344 1020.230469 1781.464844 C 1026.808594 1790.621094 1041.839844 1801.242188 1065.308594 1813.335938 C 1050.78125 1794.367188 1041.828125 1781.5 1038.46875 1774.738281 C 1033.539062 1765.511719 1031.078125 1757.464844 1031.078125 1750.589844 C 1030.980469 1745.390625 1031.308594 1740.390625 1032.058594 1735.59375 C 1039.761719 1750.226562 1045.730469 1759.777344 1049.96875 1764.246094 C 1054.140625 1769.226562 1060.800781 1773.84375 1069.929688 1778.105469 C 1057.039062 1754.410156 1050.011719 1734.5625 1048.851562 1718.558594 C 1047.570312 1709.230469 1047.800781 1692.570312 1049.539062 1668.574219 L 1058.128906 1626.484375 L 1061.789062 1626.574219 C 1070.511719 1602.667969 1075.789062 1585.328125 1077.648438 1574.546875 C 1079.320312 1566.5625 1080.28125 1556.296875 1080.53125 1543.75 L 1080.628906 1543.753906 L 1189.089844 1546.753906 L 1176.761719 1527.109375 L 1125.820312 1494.679688 L 1198.761719 1527.425781 L 1218.96875 1523.140625 L 1147.25 1474.90625 L 1147.351562 1474.910156 C 1169.199219 1476.277344 1192.730469 1482.070312 1217.941406 1492.296875 C 1293.511719 1526.09375 1404.148438 1593.101562 1549.871094 1693.316406 C 1565.460938 1702.363281 1580.890625 1708.664062 1596.179688 1712.207031 C 1607.679688 1714.988281 1619.171875 1717.3125 1630.648438 1719.167969 L 1548 1669.511719 L 1548.101562 1669.515625 C 1595.058594 1685.953125 1625.058594 1695.6875 1638.128906 1698.71875 C 1647.910156 1701.179688 1656.179688 1702.410156 1662.949219 1702.410156 C 1667.25 1702.410156 1670.941406 1701.914062 1674.019531 1700.925781 L 1515.789062 1613.988281 L 1515.890625 1613.996094 C 1596.269531 1648.777344 1646.589844 1669.183594 1666.851562 1675.207031 C 1680.21875 1679.632812 1690.988281 1681.847656 1699.179688 1681.847656 C 1705.96875 1681.847656 1710.980469 1680.324219 1714.21875 1677.277344 L 1543.230469 1589.832031 L 1714.738281 1647.953125 C 1717 1635.824219 1670.238281 1606.078125 1574.460938 1558.714844 L 1574.558594 1558.71875 L 1679.570312 1586.082031 C 1678.039062 1582.660156 1672.148438 1578.230469 1661.910156 1572.792969 C 1664.371094 1570.242188 1544.960938 1519.894531 1303.691406 1421.75 L 1231.46875 1387.71875 C 1190.019531 1347.339844 1151.480469 1311.417969 1115.851562 1279.960938 L 1115.75 1279.964844 C 1118.960938 1279.125 1122.199219 1278.261719 1125.5 1277.371094 C 1125.539062 1277.433594 1125.660156 1277.46875 1125.890625 1277.46875 C 1132.890625 1277.46875 1232.058594 1245.230469 1423.398438 1180.761719 C 1436.621094 1175.851562 1465.410156 1168.691406 1509.769531 1159.269531 C 1530.339844 1154.722656 1551.199219 1152.449219 1572.359375 1152.449219 C 1606.988281 1152.449219 1642.421875 1158.542969 1678.640625 1170.726562 L 1603.929688 1119.847656 L 1749.621094 1101.640625 L 1648.039062 1074.089844 L 1760.941406 1039.511719 L 1685.03125 1026.890625 L 1784.191406 978.898438 L 1651.359375 979 L 1787.320312 931.238281 L 1671.609375 930.960938 L 1799.808594 885.980469 L 1694.070312 891.75 L 1792.640625 843.78125 L 1668.910156 857.839844 L 1752.859375 810.230469 L 1654.730469 813.050781 L 1810.949219 712.660156 L 1645.5 753.671875 L 1789.441406 656.058594 L 1660.25 688.769531 L 1790.148438 586.71875 L 1577.640625 667.179688 L 1645.109375 597.480469 L 1378.308594 712.03125 L 1373.039062 712.410156 L 1476.03125 607.769531 L 1379.261719 649.160156 L 1446.378906 552.019531 L 1379 589.191406 L 1427.039062 490.039062 L 1427.039062 490.050781 L 1322.890625 572.5 L 1399.929688 450.71875 L 1308.988281 522.25 L 1381.660156 407.46875 L 1302.289062 477.570312 L 1349.871094 378.820312 L 1261.53125 466.570312 L 1297.851562 377.160156 L 1222.621094 440.230469 L 1282.910156 264.589844 L 1178.550781 399.371094 L 1230.941406 233.53125 L 1149.878906 339.308594 Z M 1188.5 178.699219 "/>
</svg>
